<svg fill="none" height="21" viewBox="0 0 26 21" width="26" xmlns="http://www.w3.org/2000/svg">
    <path
        d="M13.0232 4.26184L3.94616 11.7449C3.94616 11.7555 3.9435 11.771 3.93819 11.7922C3.933 11.8132 3.93024 11.8285 3.93024 11.8393V19.4167C3.93024 19.6903 4.03026 19.9274 4.23025 20.127C4.43019 20.3268 4.66696 20.4273 4.94061 20.4273H11.0024V14.3653H15.0441V20.4276H21.1058C21.3794 20.4276 21.6165 20.3273 21.8162 20.1271C22.0162 19.9276 22.1165 19.6903 22.1165 19.4167V11.8393C22.1165 11.7973 22.1108 11.7655 22.1006 11.7449L13.0232 4.26184Z"
        fill="url(#paint0_linear_2_447)" />
    <path
        d="M25.5732 10.0399L22.1162 7.16678V0.725876C22.1162 0.578625 22.0688 0.457539 21.9738 0.362766C21.8796 0.268101 21.7585 0.220772 21.611 0.220772H18.58C18.4326 0.220772 18.3116 0.268101 18.2167 0.362766C18.1221 0.457539 18.0749 0.578686 18.0749 0.725876V3.8042L14.223 0.58366C13.8866 0.310013 13.4867 0.173218 13.0235 0.173218C12.5604 0.173218 12.1605 0.310013 11.8238 0.58366L0.472966 10.0399C0.367744 10.124 0.310073 10.2371 0.299347 10.3792C0.288675 10.5212 0.325445 10.6452 0.409767 10.7504L1.38851 11.9186C1.47283 12.0133 1.58319 12.0712 1.72004 12.0923C1.84639 12.1029 1.97273 12.066 2.09908 11.9819L13.0232 2.87278L23.9474 11.9818C24.0318 12.0552 24.1421 12.0919 24.279 12.0919H24.3264C24.463 12.0711 24.5732 12.0128 24.6579 11.9184L25.6368 10.7503C25.7209 10.6449 25.7578 10.5211 25.7469 10.379C25.7361 10.2373 25.6782 10.1241 25.5732 10.0399Z"
        fill="url(#paint1_linear_2_447)" />
    <defs>
        <linearGradient gradientUnits="userSpaceOnUse" id="paint0_linear_2_447" x1="8.47681"
            x2="8.47681" y1="8.30327" y2="8.30327">
            <stop stop-color="#FFBB3B" />
            <stop offset="1" stop-color="#FFA90A" />
        </linearGradient>
        <linearGradient gradientUnits="userSpaceOnUse" id="paint1_linear_2_447" x1="6.66035"
            x2="6.66035" y1="3.15344" y2="3.15344">
            <stop stop-color="#FFBB3B" />
            <stop offset="1" stop-color="#FFA90A" />
        </linearGradient>
    </defs>
</svg>
