<svg fill="none" height="23" viewBox="0 0 23 23" width="23" xmlns="http://www.w3.org/2000/svg">
    <path
        d="M19.5725 0.838989H18.0959C19.1506 1.16791 19.6991 2.02772 19.6991 3.30301V20.5396C19.6991 21.8149 19.2069 22.692 18.0959 23.0036H19.5725C21.2389 23.0036 22.5819 21.8957 22.5819 20.5396V3.30301C22.5819 1.94693 21.2389 0.838989 19.5725 0.838989Z"
        fill="#C6C6C6" />
    <path
        d="M15.9587 0.85053C15.8814 0.844759 15.8042 0.838989 15.7269 0.838989H2.77965C1.48272 0.838989 0.423096 1.94693 0.423096 3.30301V20.5396C0.423096 21.8957 1.48272 23.0036 2.77965 23.0036H15.7324C15.8097 23.0036 15.887 22.9978 15.9642 22.9921C17.1508 22.8709 18.089 21.8149 18.089 20.5396V3.30301C18.0835 2.02772 17.1453 0.971712 15.9587 0.85053ZM8.37026 11.9184L5.2797 10.0718L2.18913 11.9184V2.68556H8.37026V11.9184Z"
        fill="#C6C6C6" />
</svg>
