<svg fill="none" height="21" viewBox="0 0 20 21" width="20" xmlns="http://www.w3.org/2000/svg">
    <path
        d="M19.2807 18.6216L14.4601 13.608C15.6996 12.1346 16.3787 10.2808 16.3787 8.35084C16.3787 3.84173 12.7101 0.173157 8.201 0.173157C3.69189 0.173157 0.0233154 3.84173 0.0233154 8.35084C0.0233154 12.8599 3.69189 16.5285 8.201 16.5285C9.89377 16.5285 11.5069 16.0179 12.8861 15.0487L17.7433 20.1004C17.9463 20.3112 18.2194 20.4275 18.512 20.4275C18.789 20.4275 19.0517 20.3219 19.2512 20.1299C19.675 19.7221 19.6885 19.0458 19.2807 18.6216ZM8.20099 2.30646C11.5339 2.30646 14.2454 5.0179 14.2454 8.35084C14.2454 11.6838 11.5339 14.3952 8.201 14.3952C4.86806 14.3952 2.15662 11.6838 2.15662 8.35084C2.15662 5.0179 4.86806 2.30646 8.20099 2.30646Z"
        fill="white" fill-opacity="0.74902" />
</svg>
