<svg fill="none" height="20" viewBox="0 0 20 20" width="20" xmlns="http://www.w3.org/2000/svg">
    <path
        d="M10.9656 1.30045L13.2214 5.87116C13.3782 6.18906 13.6815 6.40933 14.0324 6.46023L19.0766 7.19323C19.9602 7.32172 20.3127 8.40725 19.6736 9.03011L16.0236 12.5879C15.77 12.8353 15.654 13.192 15.7141 13.5412L16.5756 18.5649C16.7266 19.4448 15.8029 20.1156 15.0128 19.7005L10.5013 17.3288C10.1876 17.164 9.81254 17.164 9.49881 17.3288L4.98734 19.7005C4.19719 20.116 3.27354 19.4448 3.42456 18.5649L4.28605 13.5412C4.34613 13.192 4.23015 12.8353 3.9765 12.5879L0.326526 9.03011C-0.312606 8.40683 0.0399179 7.3213 0.923521 7.19323L5.96774 6.46023C6.31859 6.40933 6.62188 6.18906 6.77875 5.87116L9.03448 1.30045C9.42914 0.499866 10.5706 0.499866 10.9656 1.30045Z"
        fill="url(#paint0_linear_2_169)" />
    <defs>
        <linearGradient gradientUnits="userSpaceOnUse" id="paint0_linear_2_169" x1="5.00009"
            x2="5.00009" y1="5.48167" y2="5.48167">
            <stop stop-color="#FFBB3B" />
            <stop offset="1" stop-color="#FFA90A" />
        </linearGradient>
    </defs>
</svg>
